<svg class="ArrowDown Shape down" viewBox="0 -25.866 10.079 36.729">
    <path fill="rgba(255,255,255,1)" class="Shape_Class" d="M 5.852202415466309 8.171890258789063 L 5.85220193862915 -25.078125 C 5.85220193862915 -25.51596832275391 5.492343902587891 -25.86624908447266 5.042520523071289 -25.86624908447266 C 4.592696666717529 -25.86624908447266 4.232838153839111 -25.51596832275391 4.232838153839111 -25.078125 L 4.232838153839111 8.16605281829834 L 1.383956551551819 5.398867130279541 C 1.066081404685974 5.089456081390381 0.556281566619873 5.089456081390381 0.2384063899517059 5.398867130279541 C -0.07946880161762238 5.708278656005859 -0.07946880161762238 6.204503536224365 0.2384063899517059 6.513914585113525 L 4.46674633026123 10.62966537475586 C 4.622684955596924 10.78145217895508 4.832602500915527 10.86318302154541 5.036522388458252 10.86318302154541 C 5.240442276000977 10.86318302154541 5.45035982131958 10.7872896194458 5.606298446655273 10.62966537475586 L 9.840636253356934 6.508076190948486 C 10.1585111618042 6.198665618896484 10.1585111618042 5.70244026184082 9.840636253356934 5.39302921295166 C 9.528759002685547 5.089456081390381 9.012961387634277 5.089456081390381 8.701083183288574 5.398867130279541 L 5.852202415466309 8.171890258789063 L 5.852202415466309 8.171890258789063 Z">
    </path>
</svg>
