<svg xmlns="http://www.w3.org/2000/svg" width="11.828" height="13.882" viewBox="0 0 11.828 13.882">
  <g id="Grupo_120" data-name="Grupo 120" transform="translate(1.034)">
    <g id="Grupo_118" data-name="Grupo 118" transform="translate(0 6.352)">
      <path id="Trazado_356" data-name="Trazado 356" d="M231.21,1820.492a.607.607,0,0,1-.357-.116l-4.271-3.108a.607.607,0,1,1,.714-.982l3.914,2.848,3.916-2.848a.607.607,0,0,1,.714.982l-4.272,3.108a.6.6,0,0,1-.357.116Z" transform="translate(-226.332 -1816.17)" fill="#1a1a1a"/>
    </g>
    <g id="Grupo_119" data-name="Grupo 119" transform="translate(4.271)">
      <path id="Trazado_357" data-name="Trazado 357" d="M233.972,1816.383a.607.607,0,0,1-.607-.607v-9.46a.607.607,0,1,1,1.214,0v9.46a.607.607,0,0,1-.607.607Z" transform="translate(-233.365 -1805.709)" fill="#1a1a1a"/>
    </g>
  </g>
  <g id="Grupo_121" data-name="Grupo 121" transform="translate(0 12.667)">
    <path id="Trazado_358" data-name="Trazado 358" d="M235.85,1827.783H225.236a.607.607,0,1,1,0-1.214H235.85a.607.607,0,1,1,0,1.214Z" transform="translate(-224.629 -1826.569)" fill="#1a1a1a"/>
  </g>
  <g id="Grupo_122" data-name="Grupo 122" transform="translate(10.614 9.983)">
    <path id="Trazado_359" data-name="Trazado 359" d="M242.714,1826.047a.607.607,0,0,1-.607-.607v-2.685a.607.607,0,1,1,1.215,0v2.685a.607.607,0,0,1-.607.607Z" transform="translate(-242.107 -1822.148)" fill="#1a1a1a"/>
  </g>
  <g id="Grupo_123" data-name="Grupo 123" transform="translate(0 9.983)">
    <path id="Trazado_360" data-name="Trazado 360" d="M225.236,1826.047a.607.607,0,0,1-.607-.607v-2.685a.607.607,0,1,1,1.215,0v2.685a.607.607,0,0,1-.607.607Z" transform="translate(-224.629 -1822.148)" fill="#1a1a1a"/>
  </g>
</svg>