<svg xmlns="http://www.w3.org/2000/svg" class="svgLogo" id="logo-real" width="130.722" height="66.449" viewBox="0 0 130.722 66.449">
  <g id="Grupo_130" data-name="Grupo 130" transform="translate(-69 -37.527)">
    <g id="Grupo_128" data-name="Grupo 128" transform="translate(0 15)">
      <g id="logo" transform="translate(69 22.527)">
        <path id="Trazado_327" data-name="Trazado 327" d="M1323.367,393.848V384.29h130.721v9.558Z" transform="translate(-1323.367 -327.399)" fill="#fff"/>
        <path id="Trazado_328" data-name="Trazado 328" d="M1323.369,297.846h10.162v20.369l19.1-20.369h13.349l-20.287,20.331,21.327,29.105h-13.282l-15.231-21.58-4.975,5.045v16.535h-10.162Z" transform="translate(-1323.368 -297.846)" fill="#fff"/>
        <path id="Trazado_329" data-name="Trazado 329" d="M1417.415,348.89q-4.628,5.714-14.052,5.714t-14.054-5.714a22.683,22.683,0,0,1,0-27.462q4.629-5.8,14.054-5.8t14.052,5.8a22.679,22.679,0,0,1,0,27.462Zm-7.647-5.282q2.247-2.981,2.247-8.473t-2.247-8.456a8.5,8.5,0,0,0-12.9,0q-2.264,2.964-2.263,8.456t2.263,8.473a8.466,8.466,0,0,0,12.9,0Z" transform="translate(-1344.328 -303.926)" fill="#fff"/>
        <path id="Trazado_330" data-name="Trazado 330" d="M1477.95,348.89q-4.628,5.714-14.053,5.714t-14.053-5.714a22.68,22.68,0,0,1,0-27.462q4.629-5.8,14.053-5.8t14.053,5.8a22.681,22.681,0,0,1,0,27.462Zm-7.647-5.282q2.247-2.981,2.247-8.473t-2.247-8.456a8.494,8.494,0,0,0-12.9,0q-2.265,2.964-2.264,8.456t2.264,8.473a8.465,8.465,0,0,0,12.9,0Z" transform="translate(-1365.023 -303.926)" fill="#fff"/>
        <path id="Trazado_331" data-name="Trazado 331" d="M1517.029,347.283h-9.559V297.846h9.559Z" transform="translate(-1386.306 -297.846)" fill="#fff"/>
      </g>
    </g>
  </g>
</svg>
