<?xml version="1.0" encoding="utf-8"?>
<!-- Generator: Adobe Illustrator 24.1.2, SVG Export Plug-In . SVG Version: 6.00 Build 0)  -->
<svg version="1.1" id="Capa_1" xmlns="http://www.w3.org/2000/svg" xmlns:xlink="http://www.w3.org/1999/xlink" x="0px" y="0px"
	 viewBox="0 0 1024 768" style="enable-background:new 0 0 1024 768;" xml:space="preserve">
<style type="text/css">
	.st0{fill:#FFFFFF;}
	.st1{fill:#FBBA06;}
</style>
<g>
	<g>
		<path class="st0" d="M720.27,270.56h-14.5v37.99h-11.01v-37.99h-14.57v-9.67h40.07V270.56z"/>
		<path class="st0" d="M758.05,308.55h-10.74v-19.8c0-2.28-0.45-3.96-1.34-5.03c-0.9-1.07-2.13-1.61-3.69-1.61
			c-0.63,0-1.31,0.15-2.05,0.44c-0.74,0.29-1.46,0.72-2.15,1.28c-0.69,0.56-1.33,1.22-1.91,1.98c-0.58,0.76-1.03,1.61-1.34,2.55
			v20.2h-10.74v-49h10.74v19.67c1.3-2.1,3.01-3.73,5.14-4.87c2.13-1.14,4.46-1.71,7.01-1.71c2.37,0,4.28,0.41,5.74,1.24
			c1.45,0.83,2.57,1.88,3.36,3.15c0.78,1.28,1.31,2.71,1.58,4.3c0.27,1.59,0.4,3.14,0.4,4.66V308.55z"/>
		<path class="st0" d="M781.34,309.22c-2.95,0-5.6-0.48-7.95-1.44c-2.35-0.96-4.34-2.27-5.97-3.93c-1.63-1.65-2.87-3.57-3.72-5.74
			c-0.85-2.17-1.28-4.44-1.28-6.81c0-2.55,0.42-4.96,1.28-7.22c0.85-2.26,2.08-4.24,3.69-5.94c1.61-1.7,3.59-3.04,5.94-4.03
			c2.35-0.98,5.02-1.48,8.02-1.48c3,0,5.66,0.49,7.99,1.48c2.33,0.98,4.3,2.32,5.91,3.99c1.61,1.68,2.83,3.61,3.66,5.81
			c0.83,2.19,1.24,4.5,1.24,6.91c0,0.63-0.02,1.24-0.07,1.85c-0.04,0.6-0.11,1.13-0.2,1.58h-26.04c0.18,2.37,1.04,4.17,2.58,5.4
			c1.54,1.23,3.3,1.85,5.27,1.85c1.57,0,3.08-0.38,4.53-1.14c1.45-0.76,2.43-1.79,2.92-3.09l9.13,2.55
			c-1.39,2.78-3.54,5.03-6.44,6.78C788.91,308.35,785.42,309.22,781.34,309.22z M788.8,287.6c-0.22-2.24-1.03-4-2.42-5.3
			c-1.39-1.3-3.11-1.95-5.17-1.95c-2.1,0-3.84,0.66-5.2,1.98c-1.37,1.32-2.16,3.08-2.38,5.27H788.8z"/>
		<path class="st0" d="M683.95,374.33v-47.66h21.48c2.24,0,4.31,0.47,6.21,1.41c1.9,0.94,3.54,2.17,4.93,3.69
			c1.39,1.52,2.47,3.25,3.26,5.17c0.78,1.92,1.17,3.87,1.17,5.84c0,1.48-0.18,2.9-0.54,4.26c-0.36,1.37-0.87,2.65-1.54,3.86
			c-0.67,1.21-1.49,2.29-2.45,3.26c-0.96,0.96-2.05,1.78-3.26,2.45l10.47,17.72h-12.42l-9.13-15.37h-7.18v15.37H683.95z
			 M694.96,349.36h10.07c1.3,0,2.42-0.61,3.36-1.85c0.94-1.23,1.41-2.81,1.41-4.73c0-1.97-0.54-3.53-1.61-4.7
			c-1.07-1.16-2.24-1.74-3.49-1.74h-9.73V349.36z"/>
		<path class="st0" d="M743.22,375c-2.95,0-5.6-0.48-7.95-1.44c-2.35-0.96-4.34-2.27-5.97-3.93c-1.63-1.65-2.87-3.57-3.72-5.74
			c-0.85-2.17-1.28-4.44-1.28-6.81c0-2.55,0.42-4.96,1.28-7.22c0.85-2.26,2.08-4.24,3.69-5.94c1.61-1.7,3.59-3.04,5.94-4.03
			c2.35-0.98,5.02-1.48,8.02-1.48c3,0,5.66,0.49,7.99,1.48c2.33,0.98,4.3,2.32,5.91,3.99c1.61,1.68,2.83,3.61,3.66,5.81
			c0.83,2.19,1.24,4.5,1.24,6.91c0,0.63-0.02,1.24-0.07,1.85c-0.04,0.6-0.11,1.13-0.2,1.58H735.7c0.18,2.37,1.04,4.17,2.58,5.4
			c1.54,1.23,3.3,1.85,5.27,1.85c1.57,0,3.08-0.38,4.53-1.14c1.45-0.76,2.43-1.79,2.92-3.09l9.13,2.55
			c-1.39,2.78-3.54,5.03-6.44,6.78C750.78,374.12,747.29,375,743.22,375z M750.67,353.38c-0.22-2.24-1.03-4-2.42-5.3
			c-1.39-1.3-3.11-1.95-5.17-1.95c-2.1,0-3.84,0.66-5.2,1.98c-1.37,1.32-2.16,3.08-2.38,5.27H750.67z"/>
		<path class="st0" d="M788.8,372.45c-1.48,0.63-3.17,1.21-5.07,1.74c-1.9,0.54-3.81,0.8-5.74,0.8c-1.34,0-2.61-0.17-3.79-0.5
			c-1.19-0.34-2.23-0.87-3.12-1.61c-0.9-0.74-1.6-1.71-2.11-2.92c-0.51-1.21-0.77-2.66-0.77-4.36v-18.39h-4.5v-8.12h4.5v-11.21
			h10.74v11.21h7.18v8.12h-7.18v14.7c0,1.16,0.29,2,0.87,2.52c0.58,0.52,1.32,0.77,2.22,0.77c0.8,0,1.63-0.13,2.48-0.4
			c0.85-0.27,1.59-0.56,2.22-0.87L788.8,372.45z"/>
		<path class="st0" d="M802.29,375c-1.74,0-3.37-0.28-4.87-0.84c-1.5-0.56-2.79-1.34-3.86-2.35c-1.07-1.01-1.92-2.19-2.55-3.56
			c-0.63-1.36-0.94-2.85-0.94-4.46c0-1.74,0.37-3.33,1.11-4.77c0.74-1.43,1.78-2.66,3.12-3.69c1.34-1.03,2.93-1.83,4.77-2.42
			c1.83-0.58,3.87-0.87,6.11-0.87c1.48,0,2.91,0.12,4.3,0.37c1.39,0.25,2.59,0.62,3.62,1.11v-1.61c0-4.07-2.35-6.11-7.05-6.11
			c-1.92,0-3.76,0.33-5.5,0.97c-1.75,0.65-3.58,1.62-5.5,2.92l-3.15-6.71c2.33-1.52,4.74-2.66,7.25-3.42
			c2.51-0.76,5.17-1.14,7.99-1.14c5.33,0,9.44,1.25,12.35,3.76c2.91,2.51,4.36,6.18,4.36,11.01v9.06c0,1.07,0.17,1.82,0.5,2.25
			c0.34,0.43,0.93,0.68,1.78,0.77v9.06c-0.94,0.22-1.79,0.37-2.55,0.44c-0.76,0.07-1.45,0.1-2.08,0.1c-2.01,0-3.54-0.39-4.56-1.17
			s-1.68-1.89-1.95-3.32l-0.2-1.61c-1.57,2.01-3.43,3.56-5.6,4.63C807,374.46,804.7,375,802.29,375z M805.44,367.28
			c1.16,0,2.29-0.2,3.39-0.6c1.1-0.4,2-0.94,2.72-1.61c1.03-0.81,1.54-1.66,1.54-2.55v-3.36c-0.94-0.36-1.96-0.64-3.05-0.84
			c-1.1-0.2-2.11-0.3-3.05-0.3c-1.97,0-3.59,0.45-4.87,1.34s-1.91,2.06-1.91,3.49c0,1.3,0.49,2.36,1.48,3.19
			C802.67,366.86,803.92,367.28,805.44,367.28z"/>
		<path class="st0" d="M830.95,335.06v-9.73h10.74v9.73H830.95z M830.95,374.33v-35.24h10.74v35.24H830.95z"/>
		<path class="st0" d="M848.26,325.33H859v36.45c0,2.68,1.14,4.03,3.42,4.03c0.54,0,1.13-0.08,1.78-0.23
			c0.65-0.16,1.24-0.39,1.78-0.71l1.41,8.05c-1.34,0.63-2.89,1.12-4.63,1.48c-1.74,0.36-3.38,0.54-4.9,0.54
			c-3.09,0-5.46-0.8-7.11-2.42c-1.66-1.61-2.48-3.94-2.48-6.98V325.33z"/>
		<path class="st0" d="M724.96,392.45v47.66h-11.01v-19.53h-19v19.53h-11.01v-47.66h11.01v18.46h19v-18.46H724.96z"/>
		<path class="st0" d="M743.22,440.78c-3.62,0-6.37-1.13-8.22-3.39c-1.86-2.26-2.79-5.58-2.79-9.97v-22.55h10.74v20.2
			c0,2.15,0.42,3.79,1.28,4.93c0.85,1.14,2.06,1.71,3.62,1.71c1.43,0,2.82-0.38,4.16-1.14c1.34-0.76,2.53-2.08,3.56-3.96v-21.75
			h10.74v23.16c0,1.08,0.17,1.82,0.5,2.25c0.34,0.42,0.93,0.68,1.78,0.77v9.06c-1.03,0.22-1.9,0.37-2.62,0.44
			c-0.72,0.07-1.37,0.1-1.95,0.1c-3.85,0-6.04-1.5-6.58-4.5l-0.2-2.15c-1.61,2.33-3.61,4.04-6.01,5.14
			C748.85,440.23,746.17,440.78,743.22,440.78z"/>
		<path class="st0" d="M795.1,440.78c-2.68,0-5.03-0.57-7.05-1.71c-2.01-1.14-3.6-2.74-4.77-4.8v5.84h-9.33v-49h10.74v19.53
			c1.16-2.01,2.72-3.59,4.66-4.73c1.95-1.14,4.24-1.71,6.88-1.71c2.24,0,4.3,0.48,6.18,1.44c1.88,0.96,3.49,2.27,4.83,3.93
			c1.34,1.66,2.39,3.61,3.16,5.87c0.76,2.26,1.14,4.67,1.14,7.22c0,2.55-0.41,4.93-1.24,7.15c-0.83,2.22-1.98,4.14-3.46,5.77
			c-1.48,1.63-3.22,2.91-5.24,3.83C799.6,440.32,797.43,440.78,795.1,440.78z M792.08,431.71c1.25,0,2.39-0.23,3.42-0.7
			c1.03-0.47,1.91-1.11,2.65-1.91c0.74-0.81,1.32-1.76,1.74-2.85c0.42-1.1,0.64-2.29,0.64-3.59c0-1.25-0.2-2.45-0.6-3.59
			c-0.4-1.14-0.95-2.14-1.64-2.99c-0.69-0.85-1.53-1.52-2.52-2.01c-0.98-0.49-2.04-0.74-3.15-0.74c-1.7,0-3.26,0.58-4.67,1.74
			c-1.41,1.16-2.49,2.62-3.26,4.36v7.38c0.72,1.52,1.76,2.72,3.12,3.59C789.19,431.28,790.61,431.71,792.08,431.71z"/>
	</g>
	<g>
		<polygon class="st0" points="276.04,261.42 197.55,352.46 258.76,439.74 297.07,439.74 233.16,352.35 289.6,287.96 617.59,287.96 
			617.59,482.73 185.06,482.73 185.06,287.96 156.84,287.96 156.84,509.27 644.14,509.28 644.14,261.41 		"/>
		<path class="st0" d="M343.93,441.19c7.8,0,15.08-1.5,21.65-4.46c6.57-2.96,12.3-6.94,17.04-11.83c4.74-4.89,8.49-10.6,11.16-16.96
			c2.67-6.37,4.02-13.1,4.02-20.01c0-6.71-1.28-13.37-3.8-19.79c-2.52-6.42-6.15-12.23-10.79-17.26c-4.64-5.03-10.3-9.14-16.82-12.2
			c-6.51-3.06-13.87-4.61-21.86-4.61c-7.8,0-15.09,1.48-21.65,4.39c-6.57,2.91-12.33,6.87-17.12,11.76
			c-4.79,4.88-8.57,10.61-11.23,17.04c-2.67,6.42-4.02,13.18-4.02,20.08c0,6.82,1.3,13.53,3.87,19.94
			c2.57,6.42,6.22,12.21,10.86,17.19c4.64,4.99,10.3,9.07,16.82,12.13C328.58,439.64,335.93,441.19,343.93,441.19z M319.29,387.63
			c0-3.53,0.49-7.04,1.45-10.41c0.96-3.39,2.47-6.47,4.5-9.16c2.04-2.7,4.64-4.89,7.74-6.51c3.11-1.63,6.85-2.46,11.1-2.46
			c4.16,0,7.84,0.8,10.95,2.38c3.1,1.58,5.73,3.69,7.81,6.28c2.08,2.59,3.65,5.63,4.66,9.02c1.01,3.39,1.52,6.94,1.52,10.57
			c0,3.53-0.49,7.06-1.44,10.49c-0.96,3.45-2.45,6.55-4.43,9.24c-1.98,2.7-4.59,4.91-7.74,6.59c-3.16,1.68-6.92,2.53-11.18,2.53
			c-4.26,0-8-0.83-11.11-2.46c-3.1-1.62-5.7-3.79-7.74-6.43c-2.03-2.64-3.57-5.69-4.58-9.09
			C319.8,394.82,319.29,391.26,319.29,387.63z"/>
		<path class="st0" d="M436.9,436.59c6.51,3.06,13.87,4.61,21.86,4.61c7.8,0,15.08-1.5,21.65-4.46c6.57-2.96,12.3-6.94,17.04-11.83
			c4.74-4.88,8.49-10.59,11.16-16.96c2.67-6.37,4.02-13.1,4.02-20.01c0-6.71-1.28-13.37-3.8-19.79
			c-2.52-6.41-6.15-12.22-10.79-17.26c-4.64-5.03-10.3-9.14-16.82-12.2c-6.51-3.06-13.87-4.61-21.86-4.61
			c-7.8,0-15.09,1.48-21.65,4.39c-6.57,2.91-12.32,6.86-17.12,11.76c-4.78,4.88-8.56,10.61-11.23,17.04
			c-2.67,6.42-4.02,13.18-4.02,20.08c0,6.82,1.3,13.53,3.87,19.94c2.57,6.42,6.22,12.21,10.87,17.19
			C424.72,429.44,430.38,433.52,436.9,436.59z M435.57,377.22c0.96-3.39,2.48-6.47,4.51-9.16c2.03-2.7,4.64-4.89,7.74-6.51
			c3.11-1.63,6.85-2.46,11.1-2.46c4.16,0,7.84,0.8,10.95,2.38c3.1,1.58,5.73,3.69,7.81,6.28c2.08,2.59,3.65,5.63,4.66,9.02
			c1.01,3.39,1.52,6.95,1.52,10.57c0,3.53-0.49,7.05-1.45,10.49c-0.96,3.45-2.45,6.55-4.43,9.24c-1.98,2.7-4.59,4.91-7.74,6.59
			c-3.16,1.68-6.92,2.53-11.18,2.53c-4.26,0-8-0.83-11.1-2.46c-3.1-1.62-5.7-3.79-7.74-6.43c-2.03-2.63-3.57-5.69-4.58-9.09
			c-1.01-3.38-1.52-6.94-1.52-10.57C434.12,384.1,434.61,380.59,435.57,377.22z"/>
		<polygon class="st0" points="525.58,335.16 525.58,439.81 591.04,439.78 591.04,413.04 552.31,413.04 552.31,335.16 		"/>
	</g>
</g>
<g>
	<g>
		<path class="st1" d="M720.27-544.44h-14.5v37.99h-11.01v-37.99h-14.57v-9.67h40.07V-544.44z"/>
		<path class="st1" d="M758.05-506.45h-10.74v-19.8c0-2.28-0.45-3.96-1.34-5.03c-0.9-1.07-2.13-1.61-3.69-1.61
			c-0.63,0-1.31,0.15-2.05,0.44c-0.74,0.29-1.46,0.72-2.15,1.28c-0.69,0.56-1.33,1.22-1.91,1.98c-0.58,0.76-1.03,1.61-1.34,2.55
			v20.2h-10.74v-49h10.74v19.67c1.3-2.1,3.01-3.73,5.14-4.87c2.13-1.14,4.46-1.71,7.01-1.71c2.37,0,4.28,0.41,5.74,1.24
			c1.45,0.83,2.57,1.88,3.36,3.15c0.78,1.28,1.31,2.71,1.58,4.3c0.27,1.59,0.4,3.14,0.4,4.66V-506.45z"/>
		<path class="st1" d="M781.34-505.78c-2.95,0-5.6-0.48-7.95-1.44c-2.35-0.96-4.34-2.27-5.97-3.93c-1.63-1.65-2.87-3.57-3.72-5.74
			c-0.85-2.17-1.28-4.44-1.28-6.81c0-2.55,0.42-4.96,1.28-7.22c0.85-2.26,2.08-4.24,3.69-5.94c1.61-1.7,3.59-3.04,5.94-4.03
			c2.35-0.98,5.02-1.48,8.02-1.48c3,0,5.66,0.49,7.99,1.48c2.33,0.98,4.3,2.32,5.91,3.99c1.61,1.68,2.83,3.61,3.66,5.81
			c0.83,2.19,1.24,4.5,1.24,6.91c0,0.63-0.02,1.24-0.07,1.85c-0.04,0.6-0.11,1.13-0.2,1.58h-26.04c0.18,2.37,1.04,4.17,2.58,5.4
			c1.54,1.23,3.3,1.85,5.27,1.85c1.57,0,3.08-0.38,4.53-1.14c1.45-0.76,2.43-1.79,2.92-3.09l9.13,2.55
			c-1.39,2.78-3.54,5.03-6.44,6.78C788.91-506.65,785.42-505.78,781.34-505.78z M788.8-527.4c-0.22-2.24-1.03-4-2.42-5.3
			c-1.39-1.3-3.11-1.95-5.17-1.95c-2.1,0-3.84,0.66-5.2,1.98c-1.37,1.32-2.16,3.08-2.38,5.27H788.8z"/>
		<path class="st1" d="M683.95-440.67v-47.66h21.48c2.24,0,4.31,0.47,6.21,1.41c1.9,0.94,3.54,2.17,4.93,3.69
			c1.39,1.52,2.47,3.25,3.26,5.17c0.78,1.92,1.17,3.87,1.17,5.84c0,1.48-0.18,2.9-0.54,4.26c-0.36,1.37-0.87,2.65-1.54,3.86
			c-0.67,1.21-1.49,2.29-2.45,3.26c-0.96,0.96-2.05,1.78-3.26,2.45l10.47,17.72h-12.42l-9.13-15.37h-7.18v15.37H683.95z
			 M694.96-465.64h10.07c1.3,0,2.42-0.61,3.36-1.85c0.94-1.23,1.41-2.81,1.41-4.73c0-1.97-0.54-3.53-1.61-4.7
			c-1.07-1.16-2.24-1.74-3.49-1.74h-9.73V-465.64z"/>
		<path class="st1" d="M743.22-440c-2.95,0-5.6-0.48-7.95-1.44c-2.35-0.96-4.34-2.27-5.97-3.93c-1.63-1.65-2.87-3.57-3.72-5.74
			c-0.85-2.17-1.28-4.44-1.28-6.81c0-2.55,0.42-4.96,1.28-7.22c0.85-2.26,2.08-4.24,3.69-5.94c1.61-1.7,3.59-3.04,5.94-4.03
			c2.35-0.98,5.02-1.48,8.02-1.48c3,0,5.66,0.49,7.99,1.48c2.33,0.98,4.3,2.32,5.91,3.99c1.61,1.68,2.83,3.61,3.66,5.81
			c0.83,2.19,1.24,4.5,1.24,6.91c0,0.63-0.02,1.24-0.07,1.85c-0.04,0.6-0.11,1.13-0.2,1.58H735.7c0.18,2.37,1.04,4.17,2.58,5.4
			c1.54,1.23,3.3,1.85,5.27,1.85c1.57,0,3.08-0.38,4.53-1.14c1.45-0.76,2.43-1.79,2.92-3.09l9.13,2.55
			c-1.39,2.78-3.54,5.03-6.44,6.78C750.78-440.88,747.29-440,743.22-440z M750.67-461.62c-0.22-2.24-1.03-4-2.42-5.3
			c-1.39-1.3-3.11-1.95-5.17-1.95c-2.1,0-3.84,0.66-5.2,1.98c-1.37,1.32-2.16,3.08-2.38,5.27H750.67z"/>
		<path class="st1" d="M788.8-442.55c-1.48,0.63-3.17,1.21-5.07,1.74c-1.9,0.54-3.81,0.8-5.74,0.8c-1.34,0-2.61-0.17-3.79-0.5
			c-1.19-0.34-2.23-0.87-3.12-1.61c-0.9-0.74-1.6-1.71-2.11-2.92c-0.51-1.21-0.77-2.66-0.77-4.36v-18.39h-4.5v-8.12h4.5v-11.21
			h10.74v11.21h7.18v8.12h-7.18v14.7c0,1.16,0.29,2,0.87,2.52c0.58,0.52,1.32,0.77,2.22,0.77c0.8,0,1.63-0.13,2.48-0.4
			c0.85-0.27,1.59-0.56,2.22-0.87L788.8-442.55z"/>
		<path class="st1" d="M802.29-440c-1.74,0-3.37-0.28-4.87-0.84c-1.5-0.56-2.79-1.34-3.86-2.35c-1.07-1.01-1.92-2.19-2.55-3.56
			c-0.63-1.36-0.94-2.85-0.94-4.46c0-1.74,0.37-3.33,1.11-4.77c0.74-1.43,1.78-2.66,3.12-3.69c1.34-1.03,2.93-1.83,4.77-2.42
			c1.83-0.58,3.87-0.87,6.11-0.87c1.48,0,2.91,0.12,4.3,0.37c1.39,0.25,2.59,0.62,3.62,1.11v-1.61c0-4.07-2.35-6.11-7.05-6.11
			c-1.92,0-3.76,0.33-5.5,0.97c-1.75,0.65-3.58,1.62-5.5,2.92l-3.15-6.71c2.33-1.52,4.74-2.66,7.25-3.42
			c2.51-0.76,5.17-1.14,7.99-1.14c5.33,0,9.44,1.25,12.35,3.76c2.91,2.51,4.36,6.18,4.36,11.01v9.06c0,1.07,0.17,1.82,0.5,2.25
			c0.34,0.43,0.93,0.68,1.78,0.77v9.06c-0.94,0.22-1.79,0.37-2.55,0.44c-0.76,0.07-1.45,0.1-2.08,0.1c-2.01,0-3.54-0.39-4.56-1.17
			s-1.68-1.89-1.95-3.32l-0.2-1.61c-1.57,2.01-3.43,3.56-5.6,4.63C807-440.54,804.7-440,802.29-440z M805.44-447.72
			c1.16,0,2.29-0.2,3.39-0.6c1.1-0.4,2-0.94,2.72-1.61c1.03-0.81,1.54-1.66,1.54-2.55v-3.36c-0.94-0.36-1.96-0.64-3.05-0.84
			c-1.1-0.2-2.11-0.3-3.05-0.3c-1.97,0-3.59,0.45-4.87,1.34s-1.91,2.06-1.91,3.49c0,1.3,0.49,2.36,1.48,3.19
			C802.67-448.14,803.92-447.72,805.44-447.72z"/>
		<path class="st1" d="M830.95-479.94v-9.73h10.74v9.73H830.95z M830.95-440.67v-35.24h10.74v35.24H830.95z"/>
		<path class="st1" d="M848.26-489.67H859v36.45c0,2.68,1.14,4.03,3.42,4.03c0.54,0,1.13-0.08,1.78-0.23
			c0.65-0.16,1.24-0.39,1.78-0.71l1.41,8.05c-1.34,0.63-2.89,1.12-4.63,1.48c-1.74,0.36-3.38,0.54-4.9,0.54
			c-3.09,0-5.46-0.8-7.11-2.42c-1.66-1.61-2.48-3.94-2.48-6.98V-489.67z"/>
		<path class="st1" d="M724.96-422.55v47.66h-11.01v-19.53h-19v19.53h-11.01v-47.66h11.01v18.46h19v-18.46H724.96z"/>
		<path class="st1" d="M743.22-374.22c-3.62,0-6.37-1.13-8.22-3.39c-1.86-2.26-2.79-5.58-2.79-9.97v-22.55h10.74v20.2
			c0,2.15,0.42,3.79,1.28,4.93c0.85,1.14,2.06,1.71,3.62,1.71c1.43,0,2.82-0.38,4.16-1.14c1.34-0.76,2.53-2.08,3.56-3.96v-21.75
			h10.74v23.16c0,1.08,0.17,1.82,0.5,2.25c0.34,0.42,0.93,0.68,1.78,0.77v9.06c-1.03,0.22-1.9,0.37-2.62,0.44
			c-0.72,0.07-1.37,0.1-1.95,0.1c-3.85,0-6.04-1.5-6.58-4.5l-0.2-2.15c-1.61,2.33-3.61,4.04-6.01,5.14
			C748.85-374.77,746.17-374.22,743.22-374.22z"/>
		<path class="st1" d="M795.1-374.22c-2.68,0-5.03-0.57-7.05-1.71c-2.01-1.14-3.6-2.74-4.77-4.8v5.84h-9.33v-49h10.74v19.53
			c1.16-2.01,2.72-3.59,4.66-4.73c1.95-1.14,4.24-1.71,6.88-1.71c2.24,0,4.3,0.48,6.18,1.44c1.88,0.96,3.49,2.27,4.83,3.93
			c1.34,1.66,2.39,3.61,3.16,5.87c0.76,2.26,1.14,4.67,1.14,7.22c0,2.55-0.41,4.93-1.24,7.15c-0.83,2.22-1.98,4.14-3.46,5.77
			c-1.48,1.63-3.22,2.91-5.24,3.83C799.6-374.68,797.43-374.22,795.1-374.22z M792.08-383.29c1.25,0,2.39-0.23,3.42-0.7
			c1.03-0.47,1.91-1.11,2.65-1.91c0.74-0.81,1.32-1.76,1.74-2.85c0.42-1.1,0.64-2.29,0.64-3.59c0-1.25-0.2-2.45-0.6-3.59
			c-0.4-1.14-0.95-2.14-1.64-2.99c-0.69-0.85-1.53-1.52-2.52-2.01c-0.98-0.49-2.04-0.74-3.15-0.74c-1.7,0-3.26,0.58-4.67,1.74
			c-1.41,1.16-2.49,2.62-3.26,4.36v7.38c0.72,1.52,1.76,2.72,3.12,3.59C789.19-383.72,790.61-383.29,792.08-383.29z"/>
	</g>
	<g>
		<polygon class="st1" points="276.04,-553.58 197.55,-462.54 258.76,-375.26 297.07,-375.26 233.16,-462.65 289.6,-527.04 
			617.59,-527.04 617.59,-332.27 185.06,-332.27 185.06,-527.04 156.84,-527.04 156.84,-305.73 644.14,-305.72 644.14,-553.59 		"/>
		<path class="st1" d="M343.93-373.81c7.8,0,15.08-1.5,21.65-4.46c6.57-2.96,12.3-6.94,17.04-11.83c4.74-4.89,8.49-10.6,11.16-16.96
			c2.67-6.37,4.02-13.1,4.02-20.01c0-6.71-1.28-13.37-3.8-19.79c-2.52-6.42-6.15-12.23-10.79-17.26c-4.64-5.03-10.3-9.14-16.82-12.2
			c-6.51-3.06-13.87-4.61-21.86-4.61c-7.8,0-15.09,1.48-21.65,4.39c-6.57,2.91-12.33,6.87-17.12,11.76
			c-4.79,4.88-8.57,10.61-11.23,17.04c-2.67,6.42-4.02,13.18-4.02,20.08c0,6.82,1.3,13.53,3.87,19.94
			c2.57,6.42,6.22,12.21,10.86,17.19c4.64,4.99,10.3,9.07,16.82,12.13C328.58-375.36,335.93-373.81,343.93-373.81z M319.29-427.37
			c0-3.53,0.49-7.04,1.45-10.41c0.96-3.39,2.47-6.47,4.5-9.16c2.04-2.7,4.64-4.89,7.74-6.51c3.11-1.63,6.85-2.46,11.1-2.46
			c4.16,0,7.84,0.8,10.95,2.38c3.1,1.58,5.73,3.69,7.81,6.28c2.08,2.59,3.65,5.63,4.66,9.02c1.01,3.39,1.52,6.94,1.52,10.57
			c0,3.53-0.49,7.06-1.44,10.49c-0.96,3.45-2.45,6.55-4.43,9.24c-1.98,2.7-4.59,4.91-7.74,6.59c-3.16,1.68-6.92,2.53-11.18,2.53
			c-4.26,0-8-0.83-11.11-2.46c-3.1-1.62-5.7-3.79-7.74-6.43c-2.03-2.64-3.57-5.69-4.58-9.09
			C319.8-420.18,319.29-423.74,319.29-427.37z"/>
		<path class="st1" d="M436.9-378.41c6.51,3.06,13.87,4.61,21.86,4.61c7.8,0,15.08-1.5,21.65-4.46c6.57-2.96,12.3-6.94,17.04-11.83
			c4.74-4.88,8.49-10.59,11.16-16.96c2.67-6.37,4.02-13.1,4.02-20.01c0-6.71-1.28-13.37-3.8-19.79
			c-2.52-6.41-6.15-12.22-10.79-17.26c-4.64-5.03-10.3-9.14-16.82-12.2c-6.51-3.06-13.87-4.61-21.86-4.61
			c-7.8,0-15.09,1.48-21.65,4.39c-6.57,2.91-12.32,6.86-17.12,11.76c-4.78,4.88-8.56,10.61-11.23,17.04
			c-2.67,6.42-4.02,13.18-4.02,20.08c0,6.82,1.3,13.53,3.87,19.94c2.57,6.42,6.22,12.21,10.87,17.19
			C424.72-385.56,430.38-381.48,436.9-378.41z M435.57-437.78c0.96-3.39,2.48-6.47,4.51-9.16c2.03-2.7,4.64-4.89,7.74-6.51
			c3.11-1.63,6.85-2.46,11.1-2.46c4.16,0,7.84,0.8,10.95,2.38c3.1,1.58,5.73,3.69,7.81,6.28c2.08,2.59,3.65,5.63,4.66,9.02
			c1.01,3.39,1.52,6.95,1.52,10.57c0,3.53-0.49,7.05-1.45,10.49c-0.96,3.45-2.45,6.55-4.43,9.24c-1.98,2.7-4.59,4.91-7.74,6.59
			c-3.16,1.68-6.92,2.53-11.18,2.53c-4.26,0-8-0.83-11.1-2.46c-3.1-1.62-5.7-3.79-7.74-6.43c-2.03-2.63-3.57-5.69-4.58-9.09
			c-1.01-3.38-1.52-6.94-1.52-10.57C434.12-430.9,434.61-434.41,435.57-437.78z"/>
		<polygon class="st1" points="525.58,-479.84 525.58,-375.19 591.04,-375.22 591.04,-401.96 552.31,-401.96 552.31,-479.84 		"/>
	</g>
</g>
</svg>
